<?xml version="1.0" encoding="utf-8"?>
<!-- Generator: Adobe Illustrator 27.9.0, SVG Export Plug-In . SVG Version: 6.00 Build 0)  -->
<svg version="1.1" id="Layer_1" xmlns="http://www.w3.org/2000/svg" xmlns:xlink="http://www.w3.org/1999/xlink" x="0px" y="0px"
	 viewBox="0 0 500 100" style="enable-background:new 0 0 500 100;" xml:space="preserve">
<style type="text/css">
	.st0{clip-path:url(#SVGID_00000104663852382506035240000009631933920765201063_);}
	.st1{clip-path:url(#SVGID_00000117652437592292150290000005233982507226612373_);}
	.st2{clip-path:url(#SVGID_00000029026473565591240140000004007065528085150354_);}
	.st3{fill:#35CE8D;}
	.st4{clip-path:url(#SVGID_00000067918280025575664230000015826463624930902205_);}
	.st5{clip-path:url(#SVGID_00000113319039354235148990000012310126340436304306_);}
	.st6{clip-path:url(#SVGID_00000163068994200924418170000016749678138375542708_);}
	.st7{clip-path:url(#SVGID_00000105399457284462376230000015924775341140414899_);}
	.st8{clip-path:url(#SVGID_00000056394654834135172320000018267073317621262012_);}
	.st9{clip-path:url(#SVGID_00000076601366349034694990000009216507272002657669_);}
	.st10{clip-path:url(#SVGID_00000049187042733927812880000010641292120989238714_);}
	.st11{clip-path:url(#SVGID_00000182521285429480007270000002385959446114695568_);}
	.st12{clip-path:url(#SVGID_00000111173126454110669400000005276449266019823541_);}
	.st13{clip-path:url(#SVGID_00000169526508220208444620000006650055424439459004_);}
	.st14{clip-path:url(#SVGID_00000061430465784684533030000016001467656938269314_);}
</style>
<g>
	<defs>
		<rect id="SVGID_1_" x="28" y="48" width="26.7" height="21.3"/>
	</defs>
	<clipPath id="SVGID_00000122689505434975294030000014896738762019127456_">
		<use xlink:href="#SVGID_1_"  style="overflow:visible;"/>
	</clipPath>
	<g style="clip-path:url(#SVGID_00000122689505434975294030000014896738762019127456_);">
		<g>
			<defs>
				
					<rect id="SVGID_00000174604172618490588740000009225289434772565383_" x="32" y="44.7" transform="matrix(0.3853 -0.9228 0.9228 0.3853 -28.3212 73.9804)" width="18.7" height="27.2"/>
			</defs>
			<clipPath id="SVGID_00000072975809124076773500000006119979527635473572_">
				<use xlink:href="#SVGID_00000174604172618490588740000009225289434772565383_"  style="overflow:visible;"/>
			</clipPath>
			<g style="clip-path:url(#SVGID_00000072975809124076773500000006119979527635473572_);">
				<g>
					<defs>
						<path id="SVGID_00000127021387979045668960000000968656513864256446_" d="M28.8,53c-2,4.8,2,11,8.9,13.9
							c6.9,2.9,14.2,1.4,16.1-3.4c2-4.8-2-11-8.9-13.9C38,46.7,30.8,48.2,28.8,53z"/>
					</defs>
					<clipPath id="SVGID_00000160153640436654490170000015796627430819939734_">
						<use xlink:href="#SVGID_00000127021387979045668960000000968656513864256446_"  style="overflow:visible;"/>
					</clipPath>
					<g style="clip-path:url(#SVGID_00000160153640436654490170000015796627430819939734_);">
						<path class="st3" d="M25.2,61.6l7.2-17.3l25.1,10.5l-7.2,17.3L25.2,61.6z"/>
					</g>
				</g>
			</g>
		</g>
	</g>
</g>
<g>
	<defs>
		<rect id="SVGID_00000178200552667167448830000009023472004345123202_" x="44" y="20" width="24" height="25.3"/>
	</defs>
	<clipPath id="SVGID_00000046324342317894326240000003070363018847630009_">
		<use xlink:href="#SVGID_00000178200552667167448830000009023472004345123202_"  style="overflow:visible;"/>
	</clipPath>
	<g style="clip-path:url(#SVGID_00000046324342317894326240000003070363018847630009_);">
		<g>
			<defs>
				
					<rect id="SVGID_00000136386497887104942210000001752416392423611047_" x="46.7" y="18.6" transform="matrix(0.7791 -0.6269 0.6269 0.7791 -7.7915 42.2721)" width="18.7" height="27.2"/>
			</defs>
			<clipPath id="SVGID_00000176015450459306567570000017672775000780365472_">
				<use xlink:href="#SVGID_00000136386497887104942210000001752416392423611047_"  style="overflow:visible;"/>
			</clipPath>
			<g style="clip-path:url(#SVGID_00000176015450459306567570000017672775000780365472_);">
				<g>
					<defs>
						<path id="SVGID_00000110472966433825233350000013457149526371667852_" d="M47.6,21.6c-4,3.2-3.5,10.6,1.2,16.4
							c4.7,5.8,11.8,8,15.8,4.7c4-3.2,3.5-10.6-1.2-16.4C58.7,20.5,51.6,18.4,47.6,21.6z"/>
					</defs>
					<clipPath id="SVGID_00000158738925581883577310000000356623695400066434_">
						<use xlink:href="#SVGID_00000110472966433825233350000013457149526371667852_"  style="overflow:visible;"/>
					</clipPath>
					<g style="clip-path:url(#SVGID_00000158738925581883577310000000356623695400066434_);">
						<path class="st3" d="M40.3,27.5l14.6-11.7l17,21.2L57.3,48.6L40.3,27.5z"/>
					</g>
				</g>
			</g>
		</g>
	</g>
</g>
<g>
	<defs>
		<rect id="SVGID_00000094593407782904008230000002909200376016530079_" x="73.9" y="8" width="18.7" height="27.2"/>
	</defs>
	<clipPath id="SVGID_00000171696704064286607240000014743672441534282932_">
		<use xlink:href="#SVGID_00000094593407782904008230000002909200376016530079_"  style="overflow:visible;"/>
	</clipPath>
	<g style="clip-path:url(#SVGID_00000171696704064286607240000014743672441534282932_);">
		<g>
			<defs>
				<ellipse id="SVGID_00000163791350186183223580000012123581180937445530_" cx="83.3" cy="21.6" rx="9.4" ry="13.6"/>
			</defs>
			<clipPath id="SVGID_00000088835657472778716350000008739104192222009001_">
				<use xlink:href="#SVGID_00000163791350186183223580000012123581180937445530_"  style="overflow:visible;"/>
			</clipPath>
			<g style="clip-path:url(#SVGID_00000088835657472778716350000008739104192222009001_);">
				<path class="st3" d="M73.9,8h18.7v27.2H73.9V8z"/>
			</g>
		</g>
	</g>
</g>
<g>
	<defs>
		<rect id="SVGID_00000047055185960681262580000002512903919935318975_" x="101.3" y="21.4" width="21.3" height="28"/>
	</defs>
	<clipPath id="SVGID_00000089559064425222323290000003596138275120120224_">
		<use xlink:href="#SVGID_00000047055185960681262580000002512903919935318975_"  style="overflow:visible;"/>
	</clipPath>
	<g style="clip-path:url(#SVGID_00000089559064425222323290000003596138275120120224_);">
		<g>
			<defs>
				
					<rect id="SVGID_00000074412724851730516710000003310775492094242181_" x="98.1" y="25.8" transform="matrix(0.3602 -0.9329 0.9329 0.3602 38.6721 126.7219)" width="27.2" height="18.7"/>
			</defs>
			<clipPath id="SVGID_00000046298913663110746370000010868946055581593766_">
				<use xlink:href="#SVGID_00000074412724851730516710000003310775492094242181_"  style="overflow:visible;"/>
			</clipPath>
			<g style="clip-path:url(#SVGID_00000046298913663110746370000010868946055581593766_);">
				<g>
					<defs>
						<path id="SVGID_00000119099667204549118090000017740202813558043547_" d="M116.6,22.5c-4.8-1.9-10.9,2.3-13.6,9.3
							s-1,14.2,3.8,16c4.8,1.9,10.9-2.3,13.6-9.3C123.2,31.5,121.4,24.3,116.6,22.5z"/>
					</defs>
					<clipPath id="SVGID_00000019675892495253276170000009654615108613131694_">
						<use xlink:href="#SVGID_00000119099667204549118090000017740202813558043547_"  style="overflow:visible;"/>
					</clipPath>
					<g style="clip-path:url(#SVGID_00000019675892495253276170000009654615108613131694_);">
						<path class="st3" d="M107.9,19.1l17.5,6.7l-9.8,25.4l-17.5-6.7L107.9,19.1z"/>
					</g>
				</g>
			</g>
		</g>
	</g>
</g>
<g>
	<defs>
		<rect id="SVGID_00000140704446461654831090000018307975994398861467_" x="62.7" y="45.4" width="48" height="46.7"/>
	</defs>
	<clipPath id="SVGID_00000121961630453573284040000017755336602082687132_">
		<use xlink:href="#SVGID_00000140704446461654831090000018307975994398861467_"  style="overflow:visible;"/>
	</clipPath>
	<g style="clip-path:url(#SVGID_00000121961630453573284040000017755336602082687132_);">
		<defs>
			
				<rect id="SVGID_00000170276265653247319420000007636981429635088011_" x="59.2" y="43.7" transform="matrix(0.94 -0.3412 0.3412 0.94 -17.3768 32.5058)" width="49" height="44"/>
		</defs>
		<clipPath id="SVGID_00000139265781116707218940000004489731641464240044_">
			<use xlink:href="#SVGID_00000170276265653247319420000007636981429635088011_"  style="overflow:visible;"/>
		</clipPath>
		<g style="clip-path:url(#SVGID_00000139265781116707218940000004489731641464240044_);">
			<g>
				<defs>
					
						<rect id="SVGID_00000078751249342398448210000016920870760923044516_" x="59.2" y="43.7" transform="matrix(0.94 -0.3412 0.3412 0.94 -17.3768 32.5058)" width="49" height="44"/>
				</defs>
				<clipPath id="SVGID_00000098191189715177835840000010080756016684549271_">
					<use xlink:href="#SVGID_00000078751249342398448210000016920870760923044516_"  style="overflow:visible;"/>
				</clipPath>
				<g style="clip-path:url(#SVGID_00000098191189715177835840000010080756016684549271_);">
					<path class="st3" d="M63.9,82.1c2.5,6.9,10.2,10.5,17.1,8c4.2-1.5,7.2-5,8.3-9c3.4,2.4,7.9,3.1,12.1,1.6
						c6.9-2.5,10.5-10.2,8-17.1c-0.4-1-0.8-1.9-1.4-2.7c-5.7-10.2-21.9-17.3-31.7-17.3C68.9,51.8,61,67.6,63.2,79.1
						C63.3,80.1,63.5,81.1,63.9,82.1z"/>
				</g>
			</g>
		</g>
	</g>
</g>
<g>
	<g transform="translate(101.829, 206.252578)">
		<g>
			<path class="st3" d="M68.3-129.9l-2.3-8.9H50.5l-2.4,8.9H33.9l15.5-47.8h17.2l15.7,47.8H68.3z M63.3-149.4l-2.1-7.8
				c-0.2-0.8-0.5-2.1-0.9-3.6c-0.4-1.6-0.8-3.2-1.2-4.9c-0.4-1.7-0.7-3.1-0.9-4.1c-0.2,1.1-0.5,2.4-0.8,4c-0.4,1.6-0.7,3.2-1.1,4.8
				c-0.4,1.6-0.7,2.9-1,3.9l-2,7.8H63.3z"/>
		</g>
	</g>
</g>
<g>
	<g transform="translate(138.127036, 206.252578)">
		<g>
			<path class="st3" d="M61.9-129.3c-3.8,0-6.9-1.6-9.4-4.8c-2.5-3.2-3.7-8-3.7-14.2c0-6.3,1.3-11.1,3.8-14.3
				c2.5-3.2,5.8-4.9,9.8-4.9c1.7,0,3.1,0.2,4.3,0.7c1.2,0.5,2.2,1.1,3.1,1.9c0.9,0.8,1.7,1.7,2.3,2.8h0.3c-0.2-0.9-0.3-2.2-0.4-3.9
				c-0.1-1.6-0.2-3.2-0.2-4.8v-9.9h12.8v50.6h-9.6l-2.7-4.6h-0.5c-0.6,1-1.3,1.9-2.2,2.7c-0.9,0.8-1.9,1.4-3.2,1.9
				C65.1-129.5,63.6-129.3,61.9-129.3z M67.1-139.3c2,0,3.5-0.6,4.3-1.9c0.8-1.3,1.3-3.3,1.4-5.9v-1c0-2.9-0.4-5.1-1.2-6.7
				c-0.8-1.6-2.3-2.3-4.6-2.3c-1.5,0-2.8,0.7-3.8,2.2c-1,1.5-1.5,3.8-1.5,6.9c0,3.1,0.5,5.3,1.5,6.7C64.2-140,65.5-139.3,67.1-139.3
				z"/>
		</g>
	</g>
</g>
<g>
	<g transform="translate(170.275331, 206.252578)">
		<g>
			<path class="st3" d="M96.4-148.4c0,3.1-0.4,5.8-1.3,8.2c-0.8,2.4-2.1,4.4-3.7,6c-1.6,1.6-3.6,2.9-5.8,3.7
				c-2.3,0.8-4.8,1.2-7.7,1.2c-2.7,0-5.1-0.4-7.3-1.2c-2.2-0.8-4.2-2.1-5.8-3.7c-1.7-1.6-2.9-3.6-3.8-6c-0.9-2.4-1.4-5.1-1.4-8.2
				c0-4.1,0.7-7.5,2.2-10.4c1.5-2.8,3.6-5,6.4-6.4c2.8-1.5,6.1-2.2,9.9-2.2c3.5,0,6.7,0.7,9.4,2.2c2.8,1.5,4.9,3.6,6.5,6.4
				C95.6-155.9,96.4-152.5,96.4-148.4z M72.5-148.4c0,2.1,0.2,3.9,0.5,5.3c0.4,1.4,1,2.5,1.8,3.3c0.8,0.8,1.9,1.1,3.2,1.1
				c1.3,0,2.4-0.4,3.2-1.1c0.8-0.8,1.3-1.8,1.7-3.3c0.4-1.4,0.5-3.2,0.5-5.3c0-2.1-0.2-3.9-0.5-5.3c-0.4-1.4-0.9-2.5-1.7-3.2
				c-0.8-0.7-1.9-1.1-3.2-1.1c-1.9,0-3.3,0.8-4.2,2.4C72.9-153.9,72.5-151.6,72.5-148.4z"/>
		</g>
	</g>
</g>
<g>
	<g transform="translate(202.130702, 206.252578)">
		<g>
			<path class="st3" d="M89.8-139.3c1.2,0,2.2-0.1,3.1-0.4c1-0.2,2-0.5,3-0.9v9.3c-1.4,0.6-2.9,1.1-4.4,1.5
				c-1.5,0.4-3.5,0.6-5.9,0.6c-2.4,0-4.5-0.4-6.3-1.1c-1.8-0.8-3.2-2-4.2-3.9c-1-1.9-1.5-4.4-1.5-7.8v-15.2h-4.5v-5.2l5.7-4l3.3-7.8
				h8.3v7.4h9v9.5h-9v14.4c0,1.2,0.3,2.1,0.9,2.7C87.9-139.6,88.8-139.3,89.8-139.3z"/>
		</g>
	</g>
</g>
<g>
	<g transform="translate(225.125153, 206.252578)">
		<g>
			<path class="st3" d="M96-167.4c3.6,0,6.7,0.6,9.3,1.9c2.6,1.2,4.6,3.1,6,5.6c1.4,2.5,2.1,5.6,2.1,9.4v5.7H90.7
				c0.1,1.9,0.8,3.5,2.1,4.8c1.3,1.2,3.3,1.9,5.9,1.9c2.3,0,4.4-0.2,6.3-0.7c1.9-0.5,3.9-1.2,5.9-2.1v9.2c-1.8,0.9-3.7,1.6-5.8,2
				c-2.1,0.4-4.8,0.6-8,0.6c-3.7,0-7.1-0.7-10-2c-2.9-1.3-5.2-3.4-6.9-6.1c-1.7-2.8-2.5-6.3-2.5-10.7c0-4.4,0.8-8.1,2.3-10.9
				c1.5-2.9,3.7-5,6.4-6.4C89.2-166.7,92.4-167.4,96-167.4z M96.5-158.8c-1.5,0-2.8,0.5-3.8,1.4c-1,0.9-1.6,2.4-1.8,4.4h10.9
				c0-1.1-0.2-2.1-0.6-3c-0.4-0.9-1-1.6-1.8-2.1C98.6-158.5,97.7-158.8,96.5-158.8z"/>
		</g>
	</g>
</g>
<g>
	<g transform="translate(269.014776, 206.252578)">
		<g>
			<path class="st3" d="M115.5-129.9l-9.7-34.3h-0.3c0.1,0.9,0.2,2.1,0.3,3.6c0.1,1.5,0.2,3.2,0.3,4.9c0.1,1.8,0.1,3.5,0.1,5.1v20.7
				H94.8v-47.6h17.1l9.9,33.8h0.3l9.7-33.8H149v47.6h-11.8v-20.9c0-1.5,0-3.1,0.1-4.8c0.1-1.7,0.1-3.4,0.2-4.9
				c0.1-1.5,0.2-2.7,0.2-3.6h-0.3l-9.6,34.2H115.5z"/>
		</g>
	</g>
</g>
<g>
	<g transform="translate(317.347052, 206.252578)">
		<g>
			<path class="st3" d="M126.8-167.4c3.6,0,6.7,0.6,9.3,1.9c2.6,1.2,4.6,3.1,6,5.6c1.4,2.5,2.1,5.6,2.1,9.4v5.7h-22.8
				c0.1,1.9,0.8,3.5,2.1,4.8c1.3,1.2,3.3,1.9,5.9,1.9c2.3,0,4.4-0.2,6.3-0.7s3.9-1.2,5.9-2.1v9.2c-1.8,0.9-3.7,1.6-5.8,2
				c-2.1,0.4-4.8,0.6-8,0.6c-3.7,0-7.1-0.7-10-2c-2.9-1.3-5.2-3.4-6.9-6.1c-1.7-2.8-2.5-6.3-2.5-10.7c0-4.4,0.8-8.1,2.3-10.9
				c1.5-2.9,3.7-5,6.4-6.4C120-166.7,123.2-167.4,126.8-167.4z M127.2-158.8c-1.5,0-2.8,0.5-3.8,1.4c-1,0.9-1.6,2.4-1.8,4.4h10.9
				c0-1.1-0.2-2.1-0.6-3c-0.4-0.9-1-1.6-1.8-2.1C129.4-158.5,128.4-158.8,127.2-158.8z"/>
		</g>
	</g>
</g>
</svg>
