<?xml version="1.0" encoding="utf-8"?>
<!-- Generator: Adobe Illustrator 27.9.0, SVG Export Plug-In . SVG Version: 6.00 Build 0)  -->
<svg version="1.1" id="Layer_1" xmlns="http://www.w3.org/2000/svg" xmlns:xlink="http://www.w3.org/1999/xlink" x="0px" y="0px"
	 viewBox="0 0 500 100" style="enable-background:new 0 0 500 100;" xml:space="preserve">
<style type="text/css">
	.st0{clip-path:url(#SVGID_00000063595441729302793850000015880114663095579545_);}
	.st1{clip-path:url(#SVGID_00000030456658924542169330000002371782337599916686_);}
	.st2{clip-path:url(#SVGID_00000054239748819169273780000004434979799606138261_);}
	.st3{fill:#FFFFFF;}
	.st4{clip-path:url(#SVGID_00000049943431441537163300000007801810004961236647_);}
	.st5{clip-path:url(#SVGID_00000150807578029427136870000009489118132655192468_);}
	.st6{clip-path:url(#SVGID_00000160151035361691250600000002576948299706682034_);}
	.st7{clip-path:url(#SVGID_00000062910223380095966560000012167706073396249478_);}
	.st8{clip-path:url(#SVGID_00000137847087331303642460000017578378932490399890_);fill:#FFFFFF;}
	.st9{clip-path:url(#SVGID_00000013194979822220039210000017954831380302835606_);}
	.st10{clip-path:url(#SVGID_00000180364767029971740370000011451138230716239291_);}
	.st11{clip-path:url(#SVGID_00000090258254018023969000000008675942904371062965_);}
	.st12{fill:#FDFEFF;}
	.st13{clip-path:url(#SVGID_00000101795550090484997060000003949029048561979528_);}
	.st14{clip-path:url(#SVGID_00000137128295840477379660000003428735026355632522_);}
	.st15{clip-path:url(#SVGID_00000119118376832448164780000003231975110681517734_);}
</style>
<g>
	<g>
		<defs>
			<rect id="SVGID_1_" x="28" y="48" width="26.7" height="21.3"/>
		</defs>
		<clipPath id="SVGID_00000045593502251641084780000004878364794245329063_">
			<use xlink:href="#SVGID_1_"  style="overflow:visible;"/>
		</clipPath>
		<g style="clip-path:url(#SVGID_00000045593502251641084780000004878364794245329063_);">
			<g>
				<g>
					<defs>
						
							<rect id="SVGID_00000040554603744272367110000008425451149413162931_" x="32.1" y="44.7" transform="matrix(0.3853 -0.9228 0.9228 0.3853 -28.3306 74.0414)" width="18.7" height="27.2"/>
					</defs>
					<clipPath id="SVGID_00000004509171074364268470000013243699664494860699_">
						<use xlink:href="#SVGID_00000040554603744272367110000008425451149413162931_"  style="overflow:visible;"/>
					</clipPath>
					<g style="clip-path:url(#SVGID_00000004509171074364268470000013243699664494860699_);">
						<g>
							<g>
								<defs>
									<path id="SVGID_00000018948786699259098870000002958269595982980782_" d="M28.8,53c-2,4.8,2,11,8.9,13.9s14.2,1.4,16.1-3.4
										c2-4.8-2-11-8.9-13.9C38,46.7,30.8,48.2,28.8,53z"/>
								</defs>
								<clipPath id="SVGID_00000103955938573260336720000004321657259189477505_">
									<use xlink:href="#SVGID_00000018948786699259098870000002958269595982980782_"  style="overflow:visible;"/>
								</clipPath>
								<g style="clip-path:url(#SVGID_00000103955938573260336720000004321657259189477505_);">
									<path class="st3" d="M25.2,61.6l7.2-17.3l25.1,10.5l-7.2,17.3L25.2,61.6z"/>
								</g>
							</g>
						</g>
					</g>
				</g>
			</g>
		</g>
	</g>
</g>
<g>
	<g>
		<defs>
			<rect id="SVGID_00000073721990419671144940000010695991111125039504_" x="44" y="20" width="24" height="25.3"/>
		</defs>
		<clipPath id="SVGID_00000157279234789893131490000015320643805016311962_">
			<use xlink:href="#SVGID_00000073721990419671144940000010695991111125039504_"  style="overflow:visible;"/>
		</clipPath>
		<g style="clip-path:url(#SVGID_00000157279234789893131490000015320643805016311962_);">
			<g>
				<g>
					<defs>
						
							<rect id="SVGID_00000181077744808881390140000013933055975492239295_" x="46.7" y="18.6" transform="matrix(0.7791 -0.6269 0.6269 0.7791 -7.8152 42.2637)" width="18.7" height="27.2"/>
					</defs>
					<clipPath id="SVGID_00000023280833909297139780000017269155669816301489_">
						<use xlink:href="#SVGID_00000181077744808881390140000013933055975492239295_"  style="overflow:visible;"/>
					</clipPath>
					<g style="clip-path:url(#SVGID_00000023280833909297139780000017269155669816301489_);">
						<g>
							<g>
								<defs>
									<path id="SVGID_00000101808476204236499460000003690343659831926667_" d="M47.6,21.6c-4,3.2-3.5,10.6,1.2,16.4
										s11.8,8,15.8,4.7c4-3.2,3.5-10.6-1.2-16.4S51.6,18.4,47.6,21.6z"/>
								</defs>
								<clipPath id="SVGID_00000110461558364751162900000001895640437797308299_">
									<use xlink:href="#SVGID_00000101808476204236499460000003690343659831926667_"  style="overflow:visible;"/>
								</clipPath>
								<g style="clip-path:url(#SVGID_00000110461558364751162900000001895640437797308299_);">
									<path class="st3" d="M40.3,27.5l14.6-11.7l17,21.2L57.3,48.6L40.3,27.5z"/>
								</g>
							</g>
						</g>
					</g>
				</g>
			</g>
		</g>
	</g>
</g>
<g>
	<defs>
		<rect id="SVGID_00000048500065956420362820000015333166470573679001_" x="73.9" y="8" width="18.7" height="27.2"/>
	</defs>
	<clipPath id="SVGID_00000027591992508869084740000014995961011556194220_">
		<use xlink:href="#SVGID_00000048500065956420362820000015333166470573679001_"  style="overflow:visible;"/>
	</clipPath>
	<g style="clip-path:url(#SVGID_00000027591992508869084740000014995961011556194220_);">
		<defs>
			<ellipse id="SVGID_00000150788765517702907350000012104078301474139790_" cx="83.3" cy="21.6" rx="9.4" ry="13.6"/>
		</defs>
		<clipPath id="SVGID_00000093855359793134849800000017661730737087466672_">
			<use xlink:href="#SVGID_00000150788765517702907350000012104078301474139790_"  style="overflow:visible;"/>
		</clipPath>
		<path style="clip-path:url(#SVGID_00000093855359793134849800000017661730737087466672_);fill:#FFFFFF;" d="M73.9,8h18.7v27.2
			H73.9V8z"/>
	</g>
</g>
<g>
	<g>
		<defs>
			<rect id="SVGID_00000175303879228784094110000005487028053624845708_" x="101.3" y="21.4" width="21.3" height="28"/>
		</defs>
		<clipPath id="SVGID_00000176754394597630362570000016536005377201826994_">
			<use xlink:href="#SVGID_00000175303879228784094110000005487028053624845708_"  style="overflow:visible;"/>
		</clipPath>
		<g style="clip-path:url(#SVGID_00000176754394597630362570000016536005377201826994_);">
			<g>
				<g>
					<defs>
						
							<rect id="SVGID_00000114067483012350034760000003603305343360714387_" x="98.1" y="25.8" transform="matrix(0.3602 -0.9329 0.9329 0.3602 38.6484 126.7077)" width="27.2" height="18.7"/>
					</defs>
					<clipPath id="SVGID_00000132076047290352568590000015626910216636553384_">
						<use xlink:href="#SVGID_00000114067483012350034760000003603305343360714387_"  style="overflow:visible;"/>
					</clipPath>
					<g style="clip-path:url(#SVGID_00000132076047290352568590000015626910216636553384_);">
						<g>
							<g>
								<defs>
									<path id="SVGID_00000118382368579246739150000008842796732479800213_" d="M116.6,22.5c-4.8-1.9-10.9,2.3-13.6,9.3
										s-1,14.2,3.8,16c4.8,1.9,10.9-2.3,13.6-9.3C123.2,31.5,121.4,24.3,116.6,22.5z"/>
								</defs>
								<clipPath id="SVGID_00000023280069472753504760000000997622424529089454_">
									<use xlink:href="#SVGID_00000118382368579246739150000008842796732479800213_"  style="overflow:visible;"/>
								</clipPath>
								<g style="clip-path:url(#SVGID_00000023280069472753504760000000997622424529089454_);">
									<path class="st12" d="M107.9,19.1l17.5,6.7l-9.8,25.4l-17.5-6.7L107.9,19.1z"/>
								</g>
							</g>
						</g>
					</g>
				</g>
			</g>
		</g>
	</g>
</g>
<g>
	<g>
		<defs>
			<rect id="SVGID_00000037682922152858594340000014200672067987498424_" x="62.7" y="45.4" width="48" height="46.7"/>
		</defs>
		<clipPath id="SVGID_00000088093025161277288880000008703817099467189680_">
			<use xlink:href="#SVGID_00000037682922152858594340000014200672067987498424_"  style="overflow:visible;"/>
		</clipPath>
		<g style="clip-path:url(#SVGID_00000088093025161277288880000008703817099467189680_);">
			<g>
				<defs>
					
						<rect id="SVGID_00000032636432301140272650000007234183880177202305_" x="59.2" y="43.7" transform="matrix(0.94 -0.3412 0.3412 0.94 -17.3947 32.5072)" width="49" height="44"/>
				</defs>
				<clipPath id="SVGID_00000017512552811752567510000007466473078028456380_">
					<use xlink:href="#SVGID_00000032636432301140272650000007234183880177202305_"  style="overflow:visible;"/>
				</clipPath>
				<g style="clip-path:url(#SVGID_00000017512552811752567510000007466473078028456380_);">
					<g>
						<g>
							<defs>
								
									<rect id="SVGID_00000035494289581618883710000011954508141821085065_" x="59.2" y="43.7" transform="matrix(0.94 -0.3412 0.3412 0.94 -17.3947 32.5072)" width="49" height="44"/>
							</defs>
							<clipPath id="SVGID_00000001646627899662011650000003654541249747581080_">
								<use xlink:href="#SVGID_00000035494289581618883710000011954508141821085065_"  style="overflow:visible;"/>
							</clipPath>
							<g style="clip-path:url(#SVGID_00000001646627899662011650000003654541249747581080_);">
								<path class="st3" d="M63.9,82.1c2.5,6.9,10.2,10.5,17.1,8c4.2-1.5,7.2-5,8.3-9c3.4,2.4,7.9,3.1,12.1,1.6
									c6.9-2.5,10.5-10.2,8-17.1c-0.4-1-0.8-1.9-1.4-2.7c-5.7-10.2-21.9-17.3-31.7-17.3c-7.4,6.2-15.3,22-13.1,33.5
									C63.3,80.1,63.5,81.1,63.9,82.1z"/>
							</g>
						</g>
					</g>
				</g>
			</g>
		</g>
	</g>
</g>
<g>
	<g transform="translate(101.829, 206.252578)">
		<g>
			<path class="st3" d="M68.3-129.9l-2.3-8.9H50.5l-2.4,8.9H33.9l15.5-47.8h17.2l15.7,47.8H68.3z M63.3-149.4l-2.1-7.8
				c-0.2-0.8-0.5-2.1-0.9-3.6c-0.4-1.6-0.8-3.2-1.2-4.9s-0.7-3.1-0.9-4.1c-0.2,1.1-0.5,2.4-0.8,4c-0.4,1.6-0.7,3.2-1.1,4.8
				c-0.4,1.6-0.7,2.9-1,3.9l-2,7.8L63.3-149.4L63.3-149.4z"/>
		</g>
	</g>
</g>
<g>
	<g transform="translate(138.127036, 206.252578)">
		<g>
			<path class="st3" d="M61.9-129.3c-3.8,0-6.9-1.6-9.4-4.8s-3.7-8-3.7-14.2c0-6.3,1.3-11.1,3.8-14.3s5.8-4.9,9.8-4.9
				c1.7,0,3.1,0.2,4.3,0.7s2.2,1.1,3.1,1.9c0.9,0.8,1.7,1.7,2.3,2.8h0.3c-0.2-0.9-0.3-2.2-0.4-3.9c-0.1-1.6-0.2-3.2-0.2-4.8v-9.9
				h12.8v50.6H75l-2.7-4.6h-0.5c-0.6,1-1.3,1.9-2.2,2.7c-0.9,0.8-1.9,1.4-3.2,1.9C65.1-129.5,63.6-129.3,61.9-129.3z M67.1-139.3
				c2,0,3.5-0.6,4.3-1.9c0.8-1.3,1.3-3.3,1.4-5.9v-1c0-2.9-0.4-5.1-1.2-6.7c-0.8-1.6-2.3-2.3-4.6-2.3c-1.5,0-2.8,0.7-3.8,2.2
				c-1,1.5-1.5,3.8-1.5,6.9c0,3.1,0.5,5.3,1.5,6.7C64.2-140,65.5-139.3,67.1-139.3z"/>
		</g>
	</g>
</g>
<g>
	<g transform="translate(170.275331, 206.252578)">
		<g>
			<path class="st3" d="M96.4-148.4c0,3.1-0.4,5.8-1.3,8.2c-0.8,2.4-2.1,4.4-3.7,6s-3.6,2.9-5.8,3.7c-2.3,0.8-4.8,1.2-7.7,1.2
				c-2.7,0-5.1-0.4-7.3-1.2c-2.2-0.8-4.2-2.1-5.8-3.7c-1.7-1.6-2.9-3.6-3.8-6c-0.9-2.4-1.4-5.1-1.4-8.2c0-4.1,0.7-7.5,2.2-10.4
				c1.5-2.8,3.6-5,6.4-6.4c2.8-1.5,6.1-2.2,9.9-2.2c3.5,0,6.7,0.7,9.4,2.2c2.8,1.5,4.9,3.6,6.5,6.4
				C95.6-155.9,96.4-152.5,96.4-148.4z M72.5-148.4c0,2.1,0.2,3.9,0.5,5.3c0.4,1.4,1,2.5,1.8,3.3s1.9,1.1,3.2,1.1
				c1.3,0,2.4-0.4,3.2-1.1c0.8-0.8,1.3-1.8,1.7-3.3c0.4-1.4,0.5-3.2,0.5-5.3s-0.2-3.9-0.5-5.3c-0.4-1.4-0.9-2.5-1.7-3.2
				c-0.8-0.7-1.9-1.1-3.2-1.1c-1.9,0-3.3,0.8-4.2,2.4C72.9-153.9,72.5-151.6,72.5-148.4z"/>
		</g>
	</g>
</g>
<g>
	<g transform="translate(202.130702, 206.252578)">
		<g>
			<path class="st3" d="M89.8-139.3c1.2,0,2.2-0.1,3.1-0.4c1-0.2,2-0.5,3-0.9v9.3c-1.4,0.6-2.9,1.1-4.4,1.5s-3.5,0.6-5.9,0.6
				s-4.5-0.4-6.3-1.1c-1.8-0.8-3.2-2-4.2-3.9s-1.5-4.4-1.5-7.8v-15.2h-4.5v-5.2l5.7-4l3.3-7.8h8.3v7.4h9v9.5h-9v14.4
				c0,1.2,0.3,2.1,0.9,2.7S88.8-139.3,89.8-139.3z"/>
		</g>
	</g>
</g>
<g>
	<g transform="translate(225.125153, 206.252578)">
		<g>
			<path class="st3" d="M96-167.4c3.6,0,6.7,0.6,9.3,1.9c2.6,1.2,4.6,3.1,6,5.6s2.1,5.6,2.1,9.4v5.7H90.7c0.1,1.9,0.8,3.5,2.1,4.8
				c1.3,1.2,3.3,1.9,5.9,1.9c2.3,0,4.4-0.2,6.3-0.7s3.9-1.2,5.9-2.1v9.2c-1.8,0.9-3.7,1.6-5.8,2c-2.1,0.4-4.8,0.6-8,0.6
				c-3.7,0-7.1-0.7-10-2s-5.2-3.4-6.9-6.1c-1.7-2.8-2.5-6.3-2.5-10.7s0.8-8.1,2.3-10.9c1.5-2.9,3.7-5,6.4-6.4
				C89.2-166.7,92.4-167.4,96-167.4z M96.5-158.8c-1.5,0-2.8,0.5-3.8,1.4s-1.6,2.4-1.8,4.4h10.9c0-1.1-0.2-2.1-0.6-3s-1-1.6-1.8-2.1
				C98.6-158.5,97.7-158.8,96.5-158.8z"/>
		</g>
	</g>
</g>
<g>
	<g transform="translate(269.014776, 206.252578)">
		<g>
			<path class="st3" d="M115.5-129.9l-9.7-34.3h-0.3c0.1,0.9,0.2,2.1,0.3,3.6c0.1,1.5,0.2,3.2,0.3,4.9c0.1,1.8,0.1,3.5,0.1,5.1v20.7
				H94.8v-47.6h17.1l9.9,33.8h0.3l9.7-33.8H149v47.6h-11.8v-20.9c0-1.5,0-3.1,0.1-4.8s0.1-3.4,0.2-4.9c0.1-1.5,0.2-2.7,0.2-3.6h-0.3
				l-9.6,34.2H115.5z"/>
		</g>
	</g>
</g>
<g>
	<g transform="translate(317.347052, 206.252578)">
		<g>
			<path class="st3" d="M126.8-167.4c3.6,0,6.7,0.6,9.3,1.9c2.6,1.2,4.6,3.1,6,5.6s2.1,5.6,2.1,9.4v5.7h-22.8
				c0.1,1.9,0.8,3.5,2.1,4.8c1.3,1.2,3.3,1.9,5.9,1.9c2.3,0,4.4-0.2,6.3-0.7s3.9-1.2,5.9-2.1v9.2c-1.8,0.9-3.7,1.6-5.8,2
				s-4.8,0.6-8,0.6c-3.7,0-7.1-0.7-10-2s-5.2-3.4-6.9-6.1c-1.7-2.8-2.5-6.3-2.5-10.7s0.8-8.1,2.3-10.9c1.5-2.9,3.7-5,6.4-6.4
				C120-166.7,123.2-167.4,126.8-167.4z M127.2-158.8c-1.5,0-2.8,0.5-3.8,1.4s-1.6,2.4-1.8,4.4h10.9c0-1.1-0.2-2.1-0.6-3
				c-0.4-0.9-1-1.6-1.8-2.1C129.4-158.5,128.4-158.8,127.2-158.8z"/>
		</g>
	</g>
</g>
</svg>
